<svg version="1" xmlns="http://www.w3.org/2000/svg" width="373.333" height="373.333" viewBox="0 0 280.000000 280.000000"><path d="M102.6 23c-14.8.4-18 .8-18.3 2-.4 1.2-.2 1.2.5.2.6-.9 3.6-1.2 10.8-1.1 7.6.1 9.4.4 7.7 1.2-3 1.3-2.9 1.8 1.4 4.5 4.2 2.7 5.9 1.9 2.3-1-2.4-1.9-2.4-2-.5-3.4 1-.8 4.1-1.4 6.9-1.4l5.1.1-5.8 5.3C106.1 35.5 95.4 43 93.3 43c-.8 0-1.2-.4-.9-.9.3-.5-.2-.8-1.1-.7-3.2.2-2.4-2.6 1.7-6.4l4.2-3.8 3.4 2c2.5 1.5 3.8 1.8 4.6 1 1.3-1.3 0-3.5-1.8-2.8-.8.3-1.3 0-1.1-.7.1-.7-1-1.3-2.5-1.5-1.6-.2-2.8.1-2.8.7 0 1.1-3.9 2.7-5.5 2.2-.5-.1-.7.1-.2.5.4.4-.4 2-1.9 3.5-2.9 3-2.9 6.2.1 6.7 3.8.7 3.5 1.9-1.4 5.8-4.1 3.2-5 4.5-5.1 7.1 0 2.3.6 3.6 2.1 4.3 1.1.7 2.3.9 2.6.6.8-.8-.7-2.6-2.3-2.6-.8 0-1.4-.4-1.4-.8 0-2.9 38.2-33.2 41.9-33.2.7 0 1.1 1.9 1 5-.1 2.7-.7 5-1.2 5s-.4.6.2 1.4c2.4 2.9.8 6.7-5.1 11.9l-5.7 4.9L112 50c-1.7-1.2-3.4-2-3.7-1.7-.3.3.9 1.4 2.6 2.5l3.1 1.9-3 2.8c-4.4 4.2-2.8 4.3 2.1.2 4-3.5 6.9-3.9 6.9-1.1 0 .7 1.2 1.7 2.7 2l2.6.7-2.2 1.8c-1.8 1.5-2.7 1.6-4.7.7-1.3-.6-2.4-1.5-2.4-2 0-.4-.8-.8-1.7-.8-1.5 0-1.3.4.7 2 1.4 1.1 3.1 2 3.9 2 1 0 .5 1.1-1.4 3-1.7 1.7-3.1 2.6-3.3 2-.2-.5-.8-1-1.4-1-.7 0-.7.5.1 1.3.8 1.1.6 1.8-.9 3.2-1.6 1.5-2 1.5-2 .3 0-.8-.7-1.5-1.5-1.5-1.8 0-1.9.9-.3 2.5.9.9.1 2.3-3.7 6.2-2.7 2.8-5.2 5-5.6 5-.4 0-.9-1-1.2-2.2-.4-1.2-.9-1.9-1.2-1.6-.4.3-.1 1.6.5 2.8 1 1.9.8 2.6-1.4 4.9-1.4 1.4-2.6 2.1-2.6 1.4 0-.6-2.1-1.4-4.6-1.8l-4.6-.7 3.3-3.4c2.1-2.2 4.1-3.3 5.1-3 1 .2 1.8 0 1.8-.5s-.7-.9-1.7-.9c-1.4 0-1.5-.2-.1-1.8 2.8-3.1 3.1-5.9.9-8.1-1.2-1.2-2.7-2.1-3.3-2-.7 0-.3.7 1 1.6 3.1 2.2 2.8 4.7-1.5 9.4l-3.7 4-1.2-2.3c-1.1-2-1.2-1.4-1.3 4.7 0 4.2.3 6.5.8 5.6.6-.9 2-1.1 5-.6 2.2.4 4.1 1 4.1 1.3-.2 1.6-9 10.5-9 9 0-.9.7-1.8 1.5-2.2.8-.3 1.5-1.3 1.5-2.2 0-1.4-.3-1.4-1.5-.4-1.3 1.1-1.4 1-1-.3.4-.8.2-1.8-.4-2.2-.7-.4-1.1 1.2-1.2 4.7-.1 2.9-.1 5.6 0 6.1 0 .4-.2.6-.6.6-.5-.1-2.8 0-5.3.1-4.3.2-4.4.2-1.5 1.1 1.7.5 3.6.7 4.3.4.7-.3.1 1.3-1.5 3.4-2.4 3.4-2.9 3.7-3.5 2.1-.9-2.3-4.4-4.3-6.1-3.4-.6.4-.3-.2.7-1.4 1.6-1.9 1.7-2.2.3-2.2-.8 0-2.6 1.6-3.8 3.6-2.1 3.5-2.3 3.6-3 1.5-.5-1.1-1.1-2.1-1.4-2.1-.4 0-.3.5.1 1.1.4.7.1 1-.7.7-.8-.3-1.5-1.4-1.7-2.6-.3-1.6-1-2.2-3-2.2-1.8 0-2.3.3-1.4.9 1 .6 1 1-.3 2.1-.8.7-1.5 1.6-1.5 2.1 0 1.5-6.1 10.9-7 10.9-.5 0-1.8-1-3-2.2l-2-2.2 2.9-5c2.3-4.2 3.4-5.2 6.2-5.7 1.9-.4-1.9-.7-8.3-.8-9.7-.1-11.8.2-11.8 1.3 0 .8.8 2.1 1.8 2.8 1 .7 2.9 3.2 4.2 5.5 1.3 2.3 2.7 4 3.1 3.7.5-.3.6.1.3.9-.4 1.2 2.9 6.1 8.2 12.1 1.6 1.8 1.5 2.1-3.5 6.3-2.8 2.5-4.9 4.8-4.6 5.3.3.4-.3 1.4-1.2 2.1-1.4 1.2-1.5 1.1-.8-1 .7-2.3.5-2.2-3.9 1-2.6 1.9-5.4 3.8-6.4 4.4-.9.5-1.9 1.3-2.2 1.6-.3.3-2.4 1.7-4.7 3l-4.3 2.5 3.3 5.5c3.6 5.8 11.3 19.4 16.7 29.5l3.3 6.2 5.4-3.6c4-2.6 5-3.8 4.1-4.5-.9-.6-.7-.7.6-.3 1.3.5 5.2-1.5 13-6.7 6.1-4.1 14.3-9.1 18.1-11.2 3.9-2.1 8.8-5.1 11-6.5 6.4-4.4 18.4-10.1 19-9.1.5.9-1.7 2.5-10.5 7.4-23.3 12.9-57.3 34.8-55.2 35.5.7.2 1.9-.2 2.7-.8 1.2-1 1.5-1 1.5.1.1 1 .4.9 1.4-.3.7-1 2.1-1.8 3-1.8.9 0 1.6-.4 1.6-.9 0-1.1 5.9-3.5 8.2-3.4 1 .1 1.6-.2 1.4-.6-.3-.5.7-1.9 2.2-3.2 1.5-1.3 2.1-1.7 1.4-.9-2 2.3-1.4 3.5 3.1 6.8 2.4 1.7 6.7 5.2 9.5 7.8 2.9 2.5 5.5 4.5 5.7 4.3.2-.2-2.8-3-6.6-6.3-7-5.9-8.2-7.9-5.3-9 .9-.4 1.4-1.3 1-2.1-.3-.8 0-1.4.6-1.2.6.1 1.8-1.1 2.7-2.8 2-3.6 5.8-6.8 8.3-7 1.1-.1 3.1-1.4 4.4-2.9l2.5-2.7 6.1 5.5c3.3 3.1 6.5 5.3 6.9 5 .5-.3.9-.1.9.5 0 .5 2.6 1.8 5.8 2.7 3.1 1 5.9 1.9 6.1 2 .9.7-5.7 8.3-7.4 8.6-1.3.2-2.3 1.5-3 3.5-.5 1.8-1.7 3.5-2.7 3.8-.9.4-2 1.6-2.4 2.8-.4 1.2-1.1 2.5-1.7 2.9-.6.3-1.1 1.7-1.2 2.9-.1 1.5-1 2.5-2.4 2.9-2.2.5-2.2.6 1 3.5 2.1 2 3.3 2.6 3.6 1.7.3-.7 1.6-2.6 2.9-4.1 2.8-3.3 3.2-5 .7-3-1.4 1.2-1.4 1 .1-1.4 2-3 2.9-3.5 2-1.2-1.3 3.4 1 1 7.6-8 8.1-11 13.5-17.2 16.3-18.6 1.5-.8 1.2 0-1.3 3.6-1.8 2.6-4.5 6.2-6.1 8-4.8 5.4-20.9 26.8-20.9 27.7 0 .4.4.8.9.8s.7.9.4 2c-.3 1.2 0 2 .6 2 .7 0 .9-.4.6-1-.3-.5-.2-1 .4-1 .5 0 1.1-1.2 1.3-2.8.2-1.6.8-2.6 1.6-2.4.8.1 1.1-.2.7-.8-.3-.6.8-1.8 2.4-2.8 1.8-.9 2.9-2.3 2.6-3-.3-.7 0-1 .5-.7.6.3 1-.1 1-1 0-1.4.7-1.6 4.3-1 6.5 1.2 11.4 1.3 15.8.5l4.1-.8-.7 4.7c-.4 2.5-1.4 5-2.2 5.4-.9.6-1.3 2.1-1.2 4 .2 1.8-.3 4.3-1 5.6-.7 1.2-1.1 3.2-.8 4.2.3 1 .1 2.2-.5 2.5-.5.3-.6 1.9-.3 3.5.5 2.1.2 3.1-.8 3.5-2 .7-31.8-8.2-32.9-9.9-.4-.6-.7-2.1-.7-3.2 0-2 .1-2 .8 0 .7 1.7.8 1.5 1.4-1 .3-1.7.9-3.9 1.3-4.9.6-1.5.4-1.8-.8-1.3-.9.3-2.3-.2-3.3-1.3-2.1-2.3-3.5-1.7-3.3 1.3 0 1.2-.2 4.2-.6 6.7l-.7 4.5 8.8 2.4c4.8 1.3 14.9 4.3 22.3 6.6s13.7 4.1 13.9 3.9c.2-.2.7-2 1.1-4.1 4.8-23.9 8-35.8 9.2-33.8.4.9-5.2 27.6-7.9 37.5-1.2 4.2.6 4.4-23.2-2.6-10.2-2.9-18.6-5.3-18.7-5.1-.5.5 6.4 4.8 8.5 5.2 5.7 1.3 15 4.3 13.6 4.5-.5 0 .5.7 2.3 1.5 1.8.8 3.9 2 4.6 2.7.8.7 2.3 2 3.6 2.8 2.5 1.7 5.2 6.4 4.3 7.4-.4.3-.1.6.6.6.9 0 1.1-.6.6-1.8-1.8-4.4-2.3-8.2-1-8.2 1.3 0 4.5 7.3 6.1 13.5.9 3.7 2.5 4 7.5 1.5 6.4-3.3 15.1-6 27.9-8.5 6.3-1.2 11.4-2.7 11.3-3.1-.1-.5-2.9-8.5-6.3-17.7-3.3-9.3-6-17.6-6-18.4 0-3.6 2.2 1 8.6 18.1 3.8 10.1 7.1 18.2 7.3 18 .5-.5-2-8.6-3.1-9.8-.4-.6-.8-2-.8-3.3 0-1.3-.4-2.3-.8-2.3-1 0-.9-5.1.1-6.7.4-.7-1.5-5-4.3-9.7-2.7-4.6-5.4-9.6-6-11.1-1.7-4.5 2.1-1.4 6 5 6.1 9.8 5 9.3 11.1 4.8 3-2.3 9.7-6.7 14.9-9.9 10.4-6.3 17-11.2 17-12.6 0-1.8-4.7-7.8-5.5-7-.5.4-.5.1-.1-.5.9-1.7-1.2-5.5-2.6-4.7-.7.4-.8.3-.4-.4.7-1.1-2.4-8.3-4.9-11.2-.7-.8-2.5-3.8-4.1-6.5-4.1-7.2-.4-3.8 5.3 4.9 2.6 3.9 4.8 7.3 4.9 7.5.2.2 1.7-1.1 3.5-2.8 3.5-3.6 5.2-3.6 5.4-.2.1 1.3 1.7 3.6 3.5 5.2 3.3 2.9 5.4 3.2 3.1.5-2.4-2.9.7-2.4 3.7.6 1.8 1.6 3.2 2.6 3.2 2 0-.5-.7-1.5-1.5-2.2-.9-.7-1.4-1.4-1.2-1.6.5-.6 7.4 3.1 9.2 5 .9.9 2 1.4 2.5 1.1 1.4-.8 2.1 2.5.9 4.6-.9 1.8-.8 1.9.8 1 1-.6 2.9-2 4.2-3.1l2.4-2.1-2.5-2.7c-6.4-7-10.9-15.1-6.1-11 1 .8 2.5 1.9 3.3 2.3 1.3.8 1.3.6.1-.8-.9-1.1-1.1-2.8-.7-5.3.7-3.6 5.1-12.4 6.9-13.5.5-.4.6-1.2.3-1.8-.4-.6-.4-1.1.1-1.1 1 0 4.5-6.1 3.9-6.7-.4-.5-16.5 19.4-20.9 26-1.5 2.2-2.5 4.7-2.2 5.4.2.8.1 1.1-.4.8-.5-.3-1.2-.1-1.6.5-.4.6-1.9 0-3.9-1.5-4.1-3.1-5.5-3.2-3-.3l1.9 2.3-2.2-1.9c-1.3-1-2.1-2.2-1.8-2.6.2-.4-2.8-3.1-6.6-6.1-3.9-3-9.4-7.2-12.2-9.3-2.8-2.2-4.5-4.2-3.9-4.4 1.7-.5 11 5.1 21.6 13.2 4.8 3.7 8.9 6.6 9 6.4 1.2-2.7 7.9-12.2 15.1-21.3 4.1-5.3 7.5-9.9 7.5-10.3-.1-.9-3.3 3.1-11.6 14.3-3.8 5.1-7.5 9.6-8.3 10-.9.3-3.1-.6-5.2-2.2-12.7-9.6-19-14.6-19.5-15.6-.5-.8-.2-.8.7 0 1.6 1.5 3.3 1.7 2.4.3-.3-.6-.2-1 .4-1 .6 0 .8-.6.5-1.4-1-2.7 5-4.5 6.9-2.1.4.5.6 0 .4-1.2-.2-1.2-.6-2.6-1-2.9-.4-.4-.7-1.1-.7-1.6s.7-.2 1.6.6c1.5 1.6 3 2.1 4.9 1.6.6-.1 2.1-.4 3.4-.6 2.5-.3 4.7-2.7 3.1-3.2-.6-.2-1-1.4-1-2.7 0-2.8-4.7-6.8-7.2-6.2-1.4.4-1.6.2-.8-1.3.5-.9.6-2 .3-2.4-1.5-1.5 1.7-.4 4 1.4 2 1.6 2.6 1.7 3 .5.4-.9.1-1.2-.7-.9-.8.3-1.7.1-2.1-.5-.3-.6.2-1.1 1.2-1.1 1.3 0 1.5-.3.5-.8-.7-.5-1-1.6-.6-2.6.6-1.5.8-1.5 3-.1 2.8 1.8 3.8 1.9 2.8.2-.4-.7-.3-.9.2-.4s.9 1.2.9 1.5c0 .4.4 1.3.9 2.1.7 1.1.5 1.3-.7.8-2.4-.9-2.1 0 .4 1.4 1.5.8 1.9.8 1.5 0-1.6-2.5 1.3-.7 8.2 5 4 3.3 7.7 6.9 8.1 8.1.7 1.9.8 1.8 1.9-.6 1-2.3.8-2.8-2.2-5.1-1.9-1.4-4-2.4-4.7-2.3-.9.2-1.3-.4-1.1-1.6.3-1.4-.1-1.7-1.3-1.2-.9.3-1.3.2-1-.3.3-.5-.5-1.7-1.7-2.5-1.4-1-2.4-1.2-2.8-.5-.4.6-1.2.4-2-.6-1-1.2-1-1.5 0-1.5 1.7 0-1.5-2.7-11.2-9.7-6.6-4.8-7.6-5.8-6.5-7.1 1-1.2.9-1.6-.1-2-2-.6-5.8-9-7.7-17.2-1-4.1-2.6-9.4-3.6-11.7-1.1-2.3-1.9-5.1-1.9-6.2 0-1.1-.4-2.2-.8-2.5-.4-.2-.5 3 0 7.2.5 5.5.3 7.9-.5 8.5-.9.7-.9 1 .1 1.4.6.2 1.2 1.8 1.2 3.4 0 2-.4 2.8-1.1 2.3-1.8-1.1.8 3.2 3.6 6 2.6 2.7 2.9 3.5 1.7 5.2-.4.6-7.2 6.5-15.2 13.1-21.2 17.5-41.4 39.6-56.7 61.9-3.9 5.8-7.4 10.1-7.7 9.6-.3-.5-.8-2.8-1.2-5.1-.6-4-3.5-8.1-5.7-8.1-.5 0-.7-1.1-.5-2.4.3-1.5.1-2.3-.6-2-2.1.7-6.1-4.2-10.5-12.9-2.4-4.8-4.7-8.7-5.1-8.7-.3 0-2.7-2-5.2-4.4-4.2-4-5-4.3-11.2-4.8-8.8-.7-12.1.5-14.1 5.4L86 150l-4.2-3.1c-2.4-1.7-4.3-3.4-4.3-3.9s-.4-1.2-.9-1.7-.6-.2-.1.6c.8 1.5.8 1.5-4.8-1.4-3.3-1.6-3.9-1.7-4.7-.5-.7 1.1-.9.9-.7-.8.1-1.4.6-2.1 1.5-1.7.7.3 1 0 .7-.6-.4-.6-1.4-.8-2.2-.5-1.9.8-6.3-.3-6.3-1.5 0-.6.8-.5 1.9.1 2.9 1.5 3.8 1.2 1.5-.5-1-.8-2.7-1.5-3.6-1.5-1.1 0-2.1-1.4-2.9-3.9-1.1-3.7-1-4.3 2-9 1.7-2.8 2.9-5.1 2.6-5.1-.2 0 .7-1.2 2-2.6 1.4-1.5 2.5-3.1 2.5-3.6s1.5-.8 3.3-.6c2.8.3 3.2.7 3.5 3.4.5 5.5-5.3 10.5-8.6 7.2-.7-.7-1.2-.8-1.2-.2 0 .6 1.1 1.6 2.4 2.3 3 1.7 6 .2 8.1-3.9 4.5-8.7 27.3-35.7 39.8-47.3 14.5-13.3 14.4-13.3 16.7-11.2 1.3 1.2 3 1.6 5 1.3 2.2-.3 3.5 0 4.3 1.3 1.4 1.9 11.7 4.3 13 3 .4-.4-.9-.8-2.9-.9-5.6-.2-7.5-1.1-11.6-5.5-3.6-3.9-3.8-4.4-3.8-10.7 0-7.4-1.9-15.1-4.4-17.5-.9-.9-1.6-2.7-1.6-4 0-3-2-3.2-25.4-2.5zm24.8 23.5c.3.8.1 1.5-.4 1.5-.6 0-1-.7-1-1.5s.2-1.5.4-1.5.6.7 1 1.5zm-.8 4.2c1.8.7 1.8 3.7-.1 5.3-1.2 1-1.9.7-3.8-1.4-1.3-1.4-3.1-2.6-3.8-2.6-.8 0 .2-1.4 2.1-3 3.3-2.7 3.5-2.8 3.8-.9.2 1.1 1 2.3 1.8 2.6zm-67.2 57.2l2.8 2.9-2.7 4.5c-2.5 4.4-2.7 4.5-4.6 2.9-1-.9-1.9-2.2-1.9-2.8 0-.7-.6-1.4-1.2-1.7-2-.7 1.9-4.5 5.1-5 2.5-.4 2.5-.4.4-1.2-1.3-.4-2.3-1.1-2.3-1.6 0-1.7 1.6-.9 4.4 2zm162.4 1.9c.2.7-1 1.7-2.7 2.3-1.7.6-3.1 1.8-3.1 2.6s-.4 1.2-.9.9c-.5-.4-1.7-.3-2.6 0-1.6.7-1.6.8 0 1.7 1.1.6 2 .6 2.7-.1.6-.6 1.8-.1 3.5 1.6 1.9 1.9 2.2 2.7 1.1 3.3-1.9 1.3-2.6 1.1-4.9-1.2-1.3-1.3-2.7-1.8-4.1-1.3-1.4.4-1.8.2-1.4-.5.4-.6.3-1.1-.3-1.1-.5 0-1.1.5-1.3 1.1-.2.7-1 1-1.7.8-.8-.3.9-2.2 4.2-4.6 3-2.3 5.7-3.9 6-3.6.3.2 1.2-.5 1.9-1.6 1.3-2.2 2.9-2.3 3.6-.3zm3.7 1.2c.3.5.8 2 1 3.1.4 2.1.4 2.1-1.8.3-1.2-1-2.4-2-2.6-2.1-.6-.3 1-2.3 1.9-2.3.5 0 1.2.4 1.5 1zm-1.5 4.5c1 1.2 1 1.8 0 3-1.1 1.3-1.6 1.2-4.1-.8-1.5-1.2-2.8-2.5-2.8-3-.1-1.3 5.6-.7 6.9.8zm-171.3 2.7c2.3 2.1 3.1 4.8 1.5 4.8-.5 0-1.7-.9-2.6-1.9-1.3-1.5-1.4-2-.4-2.4.8-.4.7-.6-.4-.6-1-.1-1.8-.6-1.8-1.1 0-1.6 1.2-1.2 3.7 1.2zM236 121c.8.5 1.1 1.2.7 1.6-.4.4-1.5 0-2.4-.9-1.8-1.8-.8-2.3 1.7-.7zm-21.1 1.4c1.5 1.8.6 3.9-3 6.5l-2.9 2.2-2.3-2.3c-1.3-1.3-2.2-2.9-1.9-3.6.2-.7-.1-1.2-.7-1.2-1.5 0-1.4 2.3.1 3.8.9.9.8 1.2-.6 1.2s-1.7-.7-1.5-3.3c.2-1.7.5-3.5.7-4 .6-1.3 10.9-.8 12.1.7zm9.7 1.3c-.3.4-2.2 1.2-4 1.8-2.8 1-3.3 1-2.9-.1.5-1.3 2.4-2.1 5.7-2.3 1.1 0 1.6.2 1.2.6zm-25.5 1.7c-1.7 2-.3 4.4 2.7 4.8 4.7.5 3.9 3.5-2.5 9.3-3.2 2.9-8.7 8.6-12.3 12.8-5.9 6.9-6.5 7.3-8 5.7-2.6-2.9-6.7-4.1-8-2.4-1.3 1.4-1.2 1.5 4.3 1.8 4.4.3 3.8 4.4-1.5 10.3l-2 2.2-2.5-2.5c-1.3-1.3-2.1-2.9-1.7-3.6.4-.6.3-.8-.4-.4-.6.3-1.3.2-1.6-.3-1.1-1.8 4.9-1.7 6.9.1 1 1 2.1 1.6 2.4 1.3.3-.3-.7-1.6-2.1-3-1.9-1.8-2.8-2.1-3.7-1.2-.9.9-1 .7-.5-.8.7-2 .7-2-1.4-.1-1.2 1.1-2.2 1.5-2.2 1s4.1-5.2 9-10.4c5-5.1 9-9.8 9-10.2 0-.4.7-.8 1.6-.8.8 0 1.2-.5.9-1.1-.4-.6.2-1.3 1.4-1.6 1.2-.3 2.1-1 2.1-1.5 0-1 9.7-10.8 10.7-10.8.3 0 0 .6-.6 1.4zm16.1 4.8c-.3 1.4-.2 1.9.6 1.4.7-.4 1.2-.2 1.2.5s-.9.9-2.2.5c-1.3-.3-2.7-.6-3.3-.6-.7 0 3.3-3.8 4.2-4 0 0-.1 1-.5 2.2zm8.8 2.7c-.9 3-2.2 4.3-5.5 5.9-4 1.9-7.2 1.7-6.4-.6.6-1.4 12.1-10.3 12.7-9.7.3.3 0 2.2-.8 4.4zm29.5-1.9c.3.5.2 1-.4 1-.5 0-1.3-.5-1.6-1-.3-.6-.2-1 .4-1 .5 0 1.3.4 1.6 1zm-43.9 3.2c.4.7.4 1-.1.6-1.1-1-3.5 1.7-3.5 4 0 1-.9 2.7-2 3.7s-2 1.5-2 1c0-.4-.7-.2-1.5.5s-1.3 1.6-1 2c.3.5 0 1.2-.6 1.6-.6.3-1.5 0-2-.7-1.3-2.1-1.1-2.7.9-2.5 1 0 1.6-.6 1.6-1.7-.1-1 .5-1.7 1.7-1.7 1.1 0 1.8-.4 1.7-.8-.3-.9 4.4-7.1 5.4-7.1.4-.1 1 .5 1.4 1.1zm-160 8.4c.1 3.6.6 7 1.2 7.6.8.8.9.5.5-1.1-.3-1.1-.1-2.1.5-2.1s1.1.8 1.1 1.7c.1 1.6.6 6.4 1 8.6 0 .5.6.5 1.2.1.7-.4 1-.1.7.7-.5 1.4 5.4 7.9 7.2 7.9.6 0 1.8.7 2.6 1.5 1.3 1.3 1 1.7-2.5 4-2.3 1.4-4.9 2.5-6 2.5-2 0-5.1 2.5-5.1 4.1 0 .5-.9.9-1.9.9-1.1 0-2.8 1-3.8 2.3-1 1.3-2.4 2.2-3.1 1.9-.6-.2-1.6.8-2.2 2.3-1.5 4-4 2.8-7.8-4C25.5 168 21 159.2 21 157.7c0-.9 1.5-2.7 3.3-4.2 1.9-1.6 2.3-2.2 1-1.5-2.3 1.1-3.4-.2-1.3-1.5 1.6-1 5.1.5 4.3 1.8-.4.7 0 .6 1-.2.9-.7 1.5-1.7 1.2-2.1-.3-.5.8-1.8 2.4-2.9 3.3-2.4 4.5-2.7 3.5-.9-.4.8-.3 1 .2.5s.9-1.4.9-2c0-1.5 7.7-6.7 9.2-6.2.7.2 1.2.1 1.2-.3-.2-1.4.1-2.2.9-2.2.4 0 .8 3 .8 6.6zm-5.6-5.2c0 .2-.7.9-1.5 1.6-1.3 1.1-1.4 1-.9-.4.5-1.4 2.4-2.3 2.4-1.2zm18.5.6c.3.5.1 1-.4 1-.6 0-1.1-.5-1.1-1 0-.6.2-1 .4-1 .3 0 .8.4 1.1 1zm200 1c.3.6-.1.7-.9.4-1.8-.7-2.1-1.4-.7-1.4.6 0 1.3.4 1.6 1zm-193.4 5c5.9 3 6.9 5 2.6 5-2.4 0-6.7-4-4.4-4 .6-.1-.4-.9-2.3-2-5.6-3.1-2.5-2.3 4.1 1zm2.6-.8c-.3.8-.6.5-.6-.6-.1-1.1.2-1.7.5-1.3.3.3.4 1.2.1 1.9zm136.6.9c.4 1.5-.5 3-3.5 5.7-6.5 5.9-10.8 8.6-12 7.4-.7-.7 1.3-3.3 6.1-8.1 4-3.9 7.6-7.1 8-7.1.5 0 1.1.9 1.4 2.1zm-173.5.1c-.2.6-1 1.4-1.6 1.6-.7.2-1-.2-.6-1.2.7-1.8 2.8-2.2 2.2-.4zm42.2.8c1.3 1.1 2.7 2 3.2 2 .4 0 .8.5.8 1.1 0 .5-1.3.2-3-.8-1.6-.9-3-2.1-3-2.6 0-.4-.4-.5-1-.2-.5.3-1 .1-1-.4 0-1.7 1.4-1.3 4 .9zm-46 1.9c0 .5-.7 1.2-1.6 1.5-2.4.9-2.8.7-1.4-.9 1.4-1.7 3-2 3-.6zm46.5 2.8c0 .6.4 1.5.9 2s.6.3.2-.5c-1.1-1.9.9-1.4 2.7.6 2.6 2.9.8 3.4-3.2 1-2-1.2-3.8-2.3-4-2.4-.1-.2 0-.8.4-1.4.8-1.3 3-.8 3 .7zm115 3.7c-1.9 3.4-3.3 4.1-4.7 2.1-1.3-1.7-.9-2.7 1-2.3 2.3.6 3.9-1.1 3.4-3.7-.3-1.6-.1-1.8.9-.8s.9 1.9-.6 4.7zm-108.5-4c0 .3-.4.8-1 1.1-.5.3-1 .1-1-.4 0-.6.5-1.1 1-1.1.6 0 1 .2 1 .4zm-14 8.1c.7.9.8 1.5.2 1.5-.5 0-1.2-.7-1.6-1.5-.3-.8-.4-1.5-.2-1.5s.9.7 1.6 1.5zm153 2.5c0 .5-.4 1-1 1-.5 0-1-.5-1-1 0-.6.5-1 1-1 .6 0 1 .4 1 1zm-37 1c.3 0-.3.5-1.3 1.1-1.8 1.1-4.1.3-3.2-1.1.4-.7 1.4-.7 4.5 0zm43.2 3.5c1.6 2.1.7 2.5-1.4.5-1.2-1.1-2.5-2-3-2-.4 0-.8-.7-.8-1.7 0-1.4.3-1.4 2.3.3 1.2 1 2.5 2.3 2.9 2.9zm-64 .2c2.2 2 2.3 4.3.2 4.3-1.4 0-1.5-.2-.3-1.7.8-.9.9-1.4.2-1-1.7 1.1-4.3-.3-3.6-1.9.7-1.8 1.2-1.8 3.5.3zm67.4 2.2c-.3.5.5 1.2 1.9 1.5 1.4.4 2.5 1.3 2.5 2.2 0 1.3-.5 1.1-3-.6-3-2.1-3.9-4-1.9-4 .5 0 .8.4.5.9zM163 168c0 .5-.4 1-1 1-.5 0-1-.5-1-1 0-.6.5-1 1-1 .6 0 1 .4 1 1zm45.9 4.6c1.1 1.9 1.7 3.4 1.3 3.4-.4 0-.8.8-.8 1.8s.6 1.9 1.4 1.9c.7 0 1.1-.7.7-1.6-.3-.9.4-.5 1.5.9s2 2.9 1.9 3.5c0 .5-.6.2-1.3-.8-1.3-1.6-1.4-1.6-1.9.4-.7 2.5.1 4.9 1.6 4.9.7 0 .7-.4-.1-1.2-1.8-1.8-1.4-2.8 1-2.5 1.4.3 3.5 2.6 6 6.8 4.4 7.3 5.5 10.6 4.2 12.7-1.4 2.2-26.5 17.3-28.2 17-.8-.2-1.9-1-2.3-1.8-.5-.8-3.2-5.5-6-10.3-2.8-4.9-5.2-10.2-5.5-11.9-.3-2.9-.2-3 1.1-1.2 1.9 2.6 1.9.4-.1-2.4-1.9-2.8-2.6-6-1.3-6.7.5-.4.7-1 .4-1.4-.2-.5.7-.6 2-.3 1.4.2 2.5 0 2.5-.7 0-.5-.8-.8-1.7-.5-1.7.5-1.7.5-.1-.6.9-.6 1.5-1.6 1.2-2.3-.5-1.3 8.8-10.7 10.5-10.7.6 0 1.3.5 1.6 1 .4.6 1 .8 1.5.5.4-.3.7.3.6 1.2 0 .9.5 1.8 1.3 2.1 1 .3 1.1 0 .5-.9-.7-1.2-.5-1.2.9 0 .9.7 1.7 2.1 1.7 3 0 1.4-.2 1.4-1 .1-.5-.8-1-1.1-1-.5.1.5.8 1.9 1.7 3 1.2 1.5 1.4 1.6 1 .3-.4-1.1.1-1.9 1.4-2.3 2.4-.8 2.5-2.7.2-2.3-1.3.2-1.8-.4-1.9-2.2-.1-1.3-.7-2.6-1.3-2.8-.6-.2-.8-.8-.5-1.3.8-1.3 2.8.5 5.3 4.7zm-39-2.2c1.4 1.6-.3 3.3-4.6 4.6-2.4.7-2.5.8-.5.9 1.9.1 2.1.4 1 2-1.1 1.7-1.2 1.7-3.4-.8-1.8-2-2.3-2.2-2.4-1 0 .9.7 1.9 1.5 2.3 2 .7 1.8 3.6-.4 6.3-2.1 2.5-4.1 2.9-5.9 1.1-1.5-1.5-2.6-.4-1.9 1.7.4.8 1.6 1.5 2.7 1.5 2 0 2.1.1.3 2.5-2.2 2.9-2.2 2.9-5.1.5-2.2-1.8-2.2-2-.6-4.5 1.6-2.4 1.6-2.5-.5-2.5-2.7 0-2.7-1.6-.1-2.3 1.1-.3 2 0 2 .6s1 .2 2.2-1.1c2.5-2.5 1.7-4.2-1.2-2.4-1.7 1-1.8.9-1.3-.6.4-.9 1.8-3.4 3.1-5.5 1.8-2.7 2.8-3.4 3.3-2.5.5.8.3 1.4-.5 1.6-1.9.4-2.8 3-1.7 4.9.7 1.4 1 1.4 1.9-.4.6-1.1.8-2.4.4-2.8-.4-.5-.1-.5.5-.1.8.4 1.7-.2 2.4-1.8.7-1.5 2.2-2.7 3.8-2.9 1.4-.2 2.9-.5 3.2-.6.4 0 1.2.5 1.8 1.3zm5.1 0c0 .3-.4.8-1 1.1-.5.3-1 .1-1-.4 0-.6.5-1.1 1-1.1.6 0 1 .2 1 .4zm-52.7 1.2c3 .5 3.5.9 2.6 2-2 2.4-9.9 1.1-9.9-1.6 0-1.1 2-1.2 7.3-.4zm.7 9.9c0 .2-1.3.5-2.9.7-1.9.3-2.7 0-2.4-.7.3-1 5.3-.9 5.3 0zm41.7 6c-1.2 2.4-1.5 2.5-2.6 1.1-1.1-1.3-1.1-1.6.2-1.6.8 0 1.8-1.4 2.2-3.3.7-2.7.9-2.9 1.2-1 .2 1.2-.2 3.4-1 4.8zm6-.8c-.3 1.6-.1 4.2.5 5.9 2.1 6-5.7 13.3-11.8 11-1.7-.7-1.5-4.1.3-4.1.6 0 1.5-.4 2-.9s.3-.6-.4-.2c-1.9 1.1-1.6 0 1.3-4.4 1.5-2.2 3-3.7 3.5-3.5.4.3 1.1 0 1.5-.6.4-.8.3-.9-.4-.5-1.7 1-1.5-.2.6-2.9 2.3-3.2 3.6-3.1 2.9.2zm-23.2 3.2c-.3.6-1.1 1.1-1.6 1.1s-.4-.6.3-1.4c1.4-1.6 2.4-1.3 1.3.3zm6.3 5.7c.1 0-.6.8-1.5 1.7-1.6 1.4-2 1.4-4.1-.3-2-1.6-2.1-2.2-1-3.9 1.2-2 1.2-2 3.8.2 1.4 1.2 2.6 2.2 2.8 2.3zm-13.8 1.3c0 1.1-2.5 2.1-5.3 2.1-3.5 0-.1-2.2 4.6-2.9.4 0 .7.3.7.8zm51.3 21.4c-.7 1.1-2.3-1.2-2.3-3.2 0-1.1.4-.9 1.4.4.8 1.1 1.2 2.4.9 2.8zm-27.4-1.2c-1.6 1-2.3.4-1.4-1 .3-.6 1.1-.8 1.7-.5.6.4.5.9-.3 1.5zm28.8 4.1c-.3.8-.6.5-.6-.6-.1-1.1.2-1.7.5-1.3.3.3.4 1.2.1 1.9zm-17.6 5.5c.7 2.1 1.2 5.1 1.1 6.7-.2 1.6.4 3.9 1.3 5.2.8 1.3 1.5 3.3 1.5 4.4 0 2.3 1.6 5.4 4.4 8.7 1 1.2 1.6 2.6 1.2 3.1-.3.5-3.8 1.7-7.8 2.6-4 1-11.4 3.1-16.5 4.7-10.5 3.3-10.4 3.3-9.8 1.6.3-.6-.3-3.4-1.4-6.1-1-2.7-2-4.4-2.2-3.8-.2.7-.4-.9-.5-3.4-.1-3.9.1-4.3 1-2.7.6 1.1 1.7 1.8 2.3 1.6 1-.4 1-.9.1-2.6-1.3-2.5-1.5-5-.5-8.9.5-1.9 1.7-2.9 4.4-3.8 6-1.8 11.3-4.2 11.3-5.2 0-.4.6-.8 1.3-.8.7 0 2.4-1.1 3.7-2.4 1.4-1.4 2.8-2.5 3.2-2.5.3-.1 1.2 1.6 1.9 3.6zm14.9 4.7c0 .3-.4.8-1 1.1-.5.3-1 .1-1-.4 0-.6.5-1.1 1-1.1.6 0 1 .2 1 .4zm-43.2 30.1c-.3.3-.9-.2-1.2-1.2-.6-1.4-.5-1.5.5-.6.7.7 1 1.5.7 1.8z"/><path d="M55.3 115.7c.9.9 1.9 1.4 2.3 1.1 1-1-.6-2.8-2.4-2.8-1.5 0-1.5.1.1 1.7zM209.6 125.5c2.5 1.9 4 1.9 2.4 0-.7-.8-2-1.5-2.8-1.5-1.3 0-1.2.3.4 1.5zM195.4 130.3c-.8 2.1.2 3.5 1.6 2.1.5-.5.6-1.5 0-2.4-.8-1.2-1-1.2-1.6.3zM191.6 134.5c-.3.8-.1 1.5.4 1.5 1.3 0 2.2-1.8 1.1-2.4-.5-.3-1.1.1-1.5.9zM199 134.5c.7.8 1.7 1.5 2.2 1.5.6 0 .5-.7-.2-1.5s-1.7-1.5-2.2-1.5c-.6 0-.5.7.2 1.5zM193.4 138.7c-.1 1-.4 2.6-.9 3.5-.4 1.1-.3 1.8.4 1.8.6 0 1.1-.9 1.1-2 0-1.2.7-2 1.6-2 1.9 0 1.3-2.4-.7-2.8-.8-.1-1.5.5-1.5 1.5zM188.4 140.2c.3 1.5 2.6 2.3 2.6.8 0-.6-.4-.9-.9-.6-.5.4-1.2.1-1.4-.4-.3-.6-.4-.5-.3.2zM181.7 146.4c-.4 1-.1 1.3.8 1 .8-.3 2.2.2 3.1 1.1 2.2 2.1 4.4.4 2.4-2-1.6-1.9-5.6-2-6.3-.1zM176.2 151.1c-.7 1-.8 1.9-.3 1.9 1.3 0 3.3-2.8 2.3-3.3-.4-.3-1.3.3-2 1.4zM181 152.5c.7.8 1.7 1.5 2.2 1.5.5 0 .3-.7-.6-1.5-.8-.8-1.8-1.5-2.2-1.5-.3 0-.1.7.6 1.5zM51.5 153c.3.5.8 1 1.1 1 .2 0 .4-.5.4-1 0-.6-.5-1-1.1-1-.5 0-.7.4-.4 1zM37.6 158.1c-4.7 3.7-2.6 11.9 3.1 11.9 4.8 0 7.4-8.1 3.8-12-2.3-2.5-3.6-2.5-6.9.1zm2.8 1.4c-1 .8-2.3 1.4-2.9 1.4-.5 0-.1-.6.9-1.4 1.1-.8 2.4-1.5 3-1.5.5 0 .1.7-1 1.5zm-2.5 5.1c.4-.3.7.4.7 1.5 0 1.9-.1 1.9-1.3.3-.7-1-1.3-2.3-1.2-2.8 0-.6.3-.5.6.2.2.6.8 1 1.2.8zM68 145.4c0 .2.7.7 1.6 1 .8.3 1.2.2.9-.4-.6-1-2.5-1.4-2.5-.6zM79 152.4c0 .2.7.7 1.6 1 .8.3 1.2.2.9-.4-.6-1-2.5-1.4-2.5-.6zM198.6 178.6c-1.1.7-1.8 1.6-1.5 1.8.2.2 1.3-.2 2.3-1 1.1-.7 1.8-1.6 1.5-1.8-.2-.2-1.3.2-2.3 1zM207 178.1c0 .5.5.7 1 .4.6-.3 1-.8 1-1.1 0-.2-.4-.4-1-.4-.5 0-1 .5-1 1.1zM193 182.5c-1.4.8-2 1.4-1.4 1.5.5 0 1.9-.7 3-1.5 2.4-1.8 1.6-1.9-1.6 0zM197.9 182.5c-1.5.8-2.9 2.2-3.3 3.1-1 2.6 1.6 6.9 4.4 7.3 1.4.1 2.8.7 3.1 1.2.3.6 1.7 0 3-1.1 1.3-1.2 1.8-1.9 1.2-1.5-1.5.7-1.7-.4-.4-2.4.9-1.4-.5-6.1-1.8-6.1-.4 0-1.9 1.1-3.4 2.5-1.7 1.7-2.7 2.1-2.7 1.2 0-.7 1.1-2 2.5-2.7 2.7-1.4 3.3-3 1.3-3-.7.1-2.5.7-3.9 1.5zm2.6 6.5c-.3.5-1.2 1-1.8 1-.7 0-.6-.4.3-1 1.9-1.2 2.3-1.2 1.5 0zM208.6 182.7c-.4.9-.1 2.1.5 2.7.9.8 1 .8.5-.1-.3-.6-.2-1.4.4-1.8 1.2-.8 1.3-2.5.1-2.5-.5 0-1.2.8-1.5 1.7zM214.1 190.2c1 1.8.9 2-.5 1.5-1.1-.4-1.5-.3-1.1.4 1.1 1.6 2.8.5 3-1.9.1-1.3-.4-2.2-1.2-2.2-1.1 0-1.1.4-.2 2.2zM217.6 194.5c.4.8.8 1.5 1 1.5.2 0 .4-.7.4-1.5s-.4-1.5-1-1.5c-.5 0-.7.7-.4 1.5zM188.5 201.6c-1.9 1.4-1.9 1.4.1 3.4 1.8 1.8 2.2 1.9 3.9.5 1.9-1.4 1.9-1.4-.4-1.5-1.9 0-2.1-.3-1.2-1.4 1.7-2 0-2.7-2.4-1zM194 206.8c0 .7-.7 1.2-1.5 1.2s-1.5.4-1.5 1c0 .5.7 1 1.5 1 1.7 0 3.2-2.7 2.1-3.7-.3-.4-.6-.1-.6.5zM194 212.1c0 1.8.3 2 1.2 1.1 2-2 3.2-1.3 1.4.7-1 1.1-1.3 2.2-.8 2.5 1.7 1 3.7-2.4 2.5-4.2-1.6-2.7-4.3-2.7-4.3-.1zM157.5 179c-1 1.7 2.2 4.7 3.5 3.4.7-.7.4-1.6-.9-2.8-1.4-1.2-2.1-1.4-2.6-.6zM157.2 241.6c-3.7 2.5-2.7 7.6 1.9 9.9 3.3 1.8 7.2.7 8.8-2.4 1.6-2.9 1.4-3.9-1.4-6.6-2.8-2.9-6.1-3.2-9.3-.9zM177.1 249.6c0 1.1.3 1.4.6.6.3-.7.2-1.6-.1-1.9-.3-.4-.6.2-.5 1.3zM149.4 251.1c-.3.6-.1 1.6.6 2.2 1 .9 1.1.9.5-.2-.4-.8-.2-1.7.6-2.2.9-.6 1-.9.2-.9-.6 0-1.5.5-1.9 1.1zM87.5 34.1c.3.4-.3 1-1.2 1.3-.9.4-2 .1-2.5-.6-.4-.8-.8 1.3-.8 4.9V46h3.3c4.8 0 6.6-1.6 2.8-2.3-4.3-.9-4.8-3.1-1.8-7 1.7-2.3 2.1-3.4 1.2-3.4-.8 0-1.2.4-1 .8zM121 39.1c0 1.7-.5 2-2.5 1.7-1.4-.3-2.5-.2-2.5.3 0 1.3 8.1 2.2 9.3.9.9-.8.8-1-.5-.5-1.4.5-1.8.2-1.8-1.3 0-1.2-.4-2.4-1-2.7-.5-.3-1 .4-1 1.6zM101.5 44c-.3.6-.3 1 .2 1 .4 0 .1.5-.7 1.1-1.2.8-1 .9.8.4 2.6-.8 2.9.3.5 2-1.9 1.4-4.6.9-3.6-.8.4-.6.1-.7-.7-.2-1 .6-1 1 .3 2 1.4 1 .5 2.1-6.1 8.1-4.2 3.8-7.9 6.8-8.2 6.7-.3-.1-.7 1.6-.8 3.8-.2 2.5.1 3.9.9 3.9.7 0 2.1.7 3.1 1.7 1 .9 2.1 1.3 2.4 1 .4-.3-.8-1.8-2.6-3.3-2.6-2.3-3-3-1.8-3.8.7-.6 2.2-2.2 3.3-3.6 1.1-1.4 3.9-4.3 6.1-6.3l4.2-3.7 3.1 1.7c3.9 2.3 3.9 4.2.1 7.8-1.6 1.6-3 3.3-3 3.9 0 .5 1.8-.8 4-2.9 3.9-3.8 5-6.8 3-8-.5-.3-.7-1.2-.4-1.9.3-.8.1-1.7-.5-2.1-.7-.3-1.1.2-1.1 1.4 0 1.9-.2 2-2 .9-2-1.3-2-1.4 1.5-4.6 1.9-1.8 3.5-3.4 3.5-3.6 0-1.1-5-3.5-5.5-2.6zM111.5 47c1.4 1.6 2.1 1.8 2.8.8.7-1 1-1 1.4-.1.7 1.9 2.3 1.6 2.3-.4 0-.9-.3-1.3-.7-1-.3.4-1.2.2-2-.4-1-.9-1.3-.8-1.3.2s-.3 1-1.2.1c-2.1-2.1-3.2-1.3-1.3.8zM83 49.2c0 1.2.3 1.8.7 1.4 1.1-1 1.2-3.6.2-3.6-.5 0-.9 1-.9 2.2z"/><path d="M91 53c-1.2.7-1.2 1.2-.2 2.2 1.4 1.4 3.5-.1 2.4-1.9-.5-.8-1.3-.9-2.2-.3zM96 57.5c-.7.8-.8 1.5-.2 1.5.5 0 1.5-.7 2.2-1.5.7-.8.8-1.5.2-1.5-.5 0-1.5.7-2.2 1.5zM98.1 63c-1.3 1.2-1.8 2-1 2 1.6-.1 4.9-2.4 4.9-3.4 0-1.1-1.4-.6-3.9 1.4zM108.5 62.7c.4 1.5.2 2.3-.5 2.3-.6 0-.8.4-.5 1 .3.5 1.1 1 1.6 1 .6 0 .8-.4.5-.9-.4-.5 0-1.1.6-1.4 1-.3.8-1-.6-2.3-1.8-1.9-1.8-1.8-1.1.3zM156.4 65.5c3 3 3.9 3.1 5.7.7 1.3-1.5 1.2-1.6-.4-.3-1.5 1.2-2 1.1-4-.8-3.2-3-4.3-2.6-1.3.4zM103.6 65.8c-.3.6-.1 1.4.5 1.7 1.5 1 2.5-.3 1.2-1.6-.7-.7-1.3-.7-1.7-.1zM172.5 66c-.4.6-1.2.9-1.9.7-.7-.3-1.3.4-1.3 1.4-.2 2.3.6 2.4 2.2.2 1.1-1.5 1.6-1.5 6-.1 4.5 1.5 7.5 1.5 7.5-.1 0-.4-1.3-.6-3-.3-1.9.3-3 0-3-.8 0-.7-.7-1-1.6-.6-.9.4-2.2.2-2.9-.4-1-.8-1.5-.8-2 0zM164 66.5c0 1 2.9 2.4 3.4 1.7.3-.6-.3-1.2-1.4-1.5-1.1-.3-2-.4-2-.2zM205 68c.8.5 2.2.9 3 .9 1 0 .8-.3-.5-.9-2.7-1.2-4.3-1.2-2.5 0zM98 72.1c0 1.4 3 3.8 4.7 3.9.7 0 .1-1.1-1.3-2.5-2.8-2.8-3.4-3-3.4-1.4zM129 72.5c-.7.9-1.1 1.7-.9 2 .3.2 1-.5 1.7-1.5 1.4-2.4 1-2.6-.8-.5zM134.6 73.7c-1.1 1.1-.6 2.3.9 2.3.8 0 1.5-.4 1.5-.9 0-1.3-1.6-2.2-2.4-1.4zM124 76c0 .5.5 1 1.1 1 .5 0 .7-.5.4-1-.3-.6-.8-1-1.1-1-.2 0-.4.4-.4 1zM129 78c-1.3.8-1.2 1 .3 1 .9 0 1.7-.5 1.7-1 0-1.2-.1-1.2-2 0zM133 77.9c0 1.7 5.1 5 6.7 4.4 1-.4 1.4-.2 1 .4-.4.5.5 2.1 1.8 3.3 1.4 1.3 2.5 3.4 2.5 4.6 0 3.9-3.9 9.1-8.3 11.3-2.3 1.2-3.5 2.1-2.6 2.1.9 0 3.2-1.1 5.2-2.4l3.5-2.4.7 3.2c.4 1.7.7 3.4.6 3.9 0 .4.8.2 1.9-.5 1.1-.7 2-1.7 2-2.2 0-.4-.6-.3-1.4.3-1.1 1-1.6.8-2.1-.8-.3-1.2-.3-2.5 0-3.1.3-.5.1-1-.5-1s-.5-1.1.5-2.9c2.1-4.1 2.7-10.1 1-10.1-.7 0-1.9-.8-2.6-1.7-1.2-1.5-1.2-1.6.4-1 1.1.4 1.6.3 1.2-.3-.3-.6-1.3-1-2.1-1s-1.4-.5-1.4-1.2c0-.6-.3-.8-.6-.5-.4.4-1.9-.2-3.4-1.3-3.1-2.2-4-2.5-4-1.1zm4.5 2.9c-.3.3-1.1 0-1.8-.7-.9-1-.8-1.1.6-.5 1 .3 1.5.9 1.2 1.2zM190.2 79.2c-1.8 1.8-1.5 2.3 2.4 5.3 3.4 2.6 3.6 2.6 5.5.9 2.2-2 1.7-3.3-.6-1.4-.8.7-2.2.9-3.1.6-1.4-.5-1.4-.9-.3-2.4 1.2-1.5 1.2-1.6-.1-.5-1 .7-2.1.9-3 .3-1.3-.8-1.2-1.2.5-2.4 1.1-.9 1.5-1.6 1-1.6-.6 0-1.6.5-2.3 1.2zM123.4 80.3c-1.8 1-2 1.4-.9 2.4s1.6 1 2.2 0c.7-1.1 1.4-3.8 1-3.7-.1.1-1.2.6-2.3 1.3zM91.5 84c.3.5 1.4 1 2.3 1 1.5 0 1.5-.2.2-1-2-1.3-3.3-1.3-2.5 0zM118.1 85.2c-1.1 2.8-.8 3.2 1.8 2.3 2.2-.7 3-2.7.9-2.3-.7.2-1.2-.3-1-1 .4-2-.8-1.3-1.7 1z"/><path d="M134.6 84.7c-.6 1.4-.5 1.5.5.6.7-.7 1-1.5.7-1.8-.3-.3-.9.2-1.2 1.2zM126.5 85c-.4.6-1 .8-1.5.5-.4-.3-1.1.2-1.4 1.1-.9 2.4-.7 2.8.7 1.5.8-.6 1.7-.9 2-.6.4.3.5.2.2-.2-.3-.3 0-1.2.6-2 .6-.7.9-1.3.6-1.3-.3 0-.9.5-1.2 1zM182 87.7c-1.2 1.5-1.2 1.6 0 .5 2-1.7 3.8-1.5 4.4.5.4 1.4.4 1.4.3-.2-.3-2.6-3-3.1-4.7-.8zM148 88.5c-.7 5.4-.5 8.5.5 8.5 1.6 0 3-3.3 1.6-3.8-.6-.2-1.1-.8-1.1-1.4 0-.7.5-.7 1.3.1.8.6 1.7.8 2 .5.4-.4.4.4.2 1.7-.4 2.3-.4 2.3 1.1.4 1.3-1.8 1.2-2.1-.8-3.6-1.2-1-2.6-1.6-2.9-1.3-.4.2-1-.2-1.2-.8-.3-.7-.6-.9-.7-.3zM128.1 91.3c.1 1.4.3 1.6.5.7.4-1.2 1.4-1.5 4.2-1.2 4.7.6 3.9-.3-1-1.1-3.4-.5-3.8-.4-3.7 1.6zM189 91.5c-1 1.2-1.6 1.3-2.9.3-1.4-1.2-1.4-1.1-.2.4 1 1.4 1.8 1.5 3.2.7 1-.5 1.9-1.4 1.9-1.9 0-1.4-.6-1.2-2 .5zM175.4 93.1c-.3.6-.2 1.5.3 2s.9.1.9-1.1c0-2.3-.2-2.4-1.2-.9zM178.3 95.1c-.3 3.6 2.2 5 4.3 2.5.8-.9.9-1.1.2-.6-.7.6-1.8 1-2.5 1-1.6 0-1.7-2.7-.2-3.2.8-.3.7-.7-.2-1.5-1.1-.9-1.4-.5-1.6 1.8zM136.8 94.7c-2.9 3.4-3 4.8-.2 2.1 1.5-1.5 2.6-3 2.3-3.3-.3-.3-1.3.3-2.1 1.2zM116.9 97.1c1.1 3.2 3.2 3.7 2.8.7-.2-1.2-1.1-2.4-2-2.6-1.4-.3-1.5.1-.8 1.9zM108.7 98.1c.4 1.3.8 1.8 1.1 1 .2-.7-.1-1.8-.6-2.3-.8-.8-.9-.4-.5 1.3zM121.7 100c.7 2.5 2.3 3.7 2.3 1.7 0-.8-.6-2-1.4-2.6-1.2-1-1.3-.8-.9.9zM168.5 99.1c-.4.6-.5 1.2-.2 1.5.2.3.7-.2 1-1.1.7-1.7.1-2-.8-.4zM171.9 98.9c.7.5 1.1 1.4.7 2-.5.7-.1.9.9.5 1.2-.5 1.3-.9.4-2-.6-.8-1.7-1.4-2.3-1.4-.6 0-.5.4.3.9zM117.6 102c.9 1.6 1.1 2.1 1.3 4.5 0 .8.5 1.5.9 1.5 1.5 0 .6-4-1.3-5.8-1.2-1.2-1.5-1.3-.9-.2zM61.8 102.7c.7.3 1.6.2 1.9-.1.4-.3-.2-.6-1.3-.5-1.1 0-1.4.3-.6.6zM125 103.5c0 .8.9 1.5 2 1.5s2-.2 2-.5c0-.2-.9-.9-2-1.5-1.6-.9-2-.8-2 .5zM175.6 103.7c-.6 1.4-.5 1.5.5.6.7-.7 1-1.5.7-1.8-.3-.3-.9.2-1.2 1.2zM135.5 106.4c-1 .7-2.6 1.1-3.6.9-.9-.3-2 .1-2.4.8-.5.8-.4 1 .3.5.7-.4 1.2-.2 1.2.4 0 .7.6.8 1.8.1.9-.5 1.9-.9 2.2-.9 1.4.2 5-1.5 5-2.3 0-1.3-2.3-1.1-4.5.5zM124 107.9c0 .6.4 1.3 1 1.6.6.3.7-.1.4-.9-.7-1.8-1.4-2.1-1.4-.7zM165.8 108.6c1.3.9 1.9 2 1.5 2.7-.4.7.2.5 1.3-.3 2.9-2.2 3-2.4 1.2-1.7-.9.3-2.2-.1-2.8-.9-.7-.8-1.7-1.4-2.3-1.4-.6 0-.1.7 1.1 1.6zM65 111.8c0 1.4 4.9 5.6 5.7 4.9.3-.4-.4-1.8-1.7-3.2-2.4-2.5-4-3.2-4-1.7zM123.8 111.7c.7.3 1.6.2 1.9-.1.4-.3-.2-.6-1.3-.5-1.1 0-1.4.3-.6.6zM127.5 112c-.3.5-.1 1 .4 1 .6 0 1.1-.5 1.1-1 0-.6-.2-1-.4-1-.3 0-.8.4-1.1 1zM131.1 111.9c-1 .7-.7.9 1.2.8 1.5-.1 2.7-.5 2.7-1 0-1-2.2-.9-3.9.2zM154.5 112c-.3.5-.2 1 .4 1 .5 0 1.3-.5 1.6-1 .3-.6.2-1-.4-1-.5 0-1.3.4-1.6 1zM157.9 114.7c-1.3 1.6-1.2 1.7.4.4.9-.7 1.7-1.5 1.7-1.7 0-.8-.8-.3-2.1 1.3zM161.7 114.9c.4 1.4-.1 2.1-1.9 2.4-2.1.4-2 .4.5.6 2.1.1 2.7-.4 2.7-1.8 0-1.1-.4-2.2-.9-2.5-.5-.4-.7.3-.4 1.3zM153.8 120.7c.7.3 1.6.2 1.9-.1.4-.3-.2-.6-1.3-.5-1.1 0-1.4.3-.6.6zM150.1 123.7c.6.7 1.5 1.3 2 1.3s.6-.6.3-1.3c-.3-.8-1.1-1.4-1.9-1.4-1.1 0-1.2.4-.4 1.4zM147.5 126.8c1.7 2 1.7 2.6.5 4.5-1.2 2-1.2 2.1.3.8 2.3-1.8 2.1-3.4-.5-5.7l-2.3-1.9 2 2.3zM238 125.4c0 .2.7.7 1.6 1 .8.3 1.2.2.9-.4-.6-1-2.5-1.4-2.5-.6z"/><path d="M141.7 126.7c-.9.8 1.2 3.3 2.9 3.3.7 0 1.6-.4 1.9-1 .4-.6-.4-.9-1.7-.7-1.4.1-2.2-.3-2-1.1.2-1.3-.1-1.5-1.1-.5zM240.7 130.9c-.3 1.2-.1 2.1.4 2.1s.9-.5.9-1.2c0-.6.7-.4 1.8.5 2.2 2 3.2 2.1 3.2.5 0-.6-.3-.8-.7-.5-.3.4-1.6-.2-2.8-1.3l-2.2-2.1-.6 2zM135.3 133.7c-.4 1 .3 2.4 2.1 4 3.2 2.7 3.9 2.8 5.6.8 1.1-1.3.9-2-1-4-2.7-2.9-5.8-3.2-6.7-.8zm6.2 1.3c1.4 1.5 1.6 2.3.7 3.2-1.4 1.4-6.2-1.5-6.2-3.7s3.4-1.8 5.5.5zM248 135c0 .8.5 2.2 1 3 .9 1.3 1 1.3 1 0 0-.8-.5-2.2-1-3-.9-1.3-1-1.3-1 0zM165 139c0 .5.5 1 1.1 1 .5 0 .7-.5.4-1-.3-.6-.8-1-1.1-1-.2 0-.4.4-.4 1zM252 138.4c0 .2.7.9 1.5 1.6 1.3 1.1 1.4 1 .9-.4-.5-1.4-2.4-2.3-2.4-1.2zM127.7 142.8c-1.6 1.8-1.5 2 2.3 5.1l4 3.2 1.1-2.5c1-2.2.9-2.9-1.2-5-2.9-3.1-4-3.2-6.2-.8zm3.9.3c1 1.7-1.3 3.6-2.7 2.2-1.2-1.2-.4-3.3 1.1-3.3.5 0 1.2.5 1.6 1.1zm3.4 3.3c0 2-1.9 3.1-3.2 1.8-.6-.6-.7-1.5-.4-2.1 1-1.6 3.6-1.3 3.6.3zM122 150.7c0 .5 1.4 2.4 3 4.3 2.2 2.8 2.8 3.1 2.7 1.5-.1-1.4.4-2 1.6-1.9 3 .3 1.8-1.3-2.3-3-4.6-1.8-5-1.9-5-.9zm4.9 2.2c.8.5.9 1.1.3 1.5-.5.3-1.5-.1-2.2-.9-1.4-1.6-.3-2 1.9-.6zM229 155.9c-.6 1.3-.6 2.2-.1 2.6.9.5 3.1-2.4 3.1-3.9 0-1.4-2-.4-3 1.3zM231.3 158.5c-.8 2.2.6 3.3 1.7 1.5 1.3-2 1.2-3 0-3-.6 0-1.3.7-1.7 1.5zM235.1 160.4c-.8.9-1.1 1.9-.7 2.3.9.9 2.9-1.3 2.4-2.7-.2-.8-.8-.7-1.7.4zM147.6 161.6c-.5 1.4-.4 1.5.9.4 1.7-1.4 1.9-2 .6-2-.5 0-1.2.7-1.5 1.6zM237.5 162.1c-.4.6-.3 1.5.3 2.1.6.6 1.1.4 1.5-.6.7-1.8-.9-3.1-1.8-1.5zM240.2 165c-1.4 2.3.1 3.6 1.8 1.4.8-.9 1-1.8.4-2.4-.6-.6-1.4-.2-2.2 1zM136.5 167c-.3.6.1.7.9.4 1.8-.7 2.1-1.4.7-1.4-.6 0-1.3.4-1.6 1zM148.8 169.7c.7.3 1.6.2 1.9-.1.4-.3-.2-.6-1.3-.5-1.1 0-1.4.3-.6.6zM138 172.5c.7.8 1.7 1.2 2.2.9.6-.4.5-1-.3-1.5-2.2-1.4-3.3-1-1.9.6zM84.7 176.7c-1 .9-.9 2.3.2 2.3.5 0 1.1-.7 1.5-1.5.5-1.5-.5-2-1.7-.8zM89.5 183c-3.6 4-1 12 4 12 5.1 0 7.3-7.6 3.5-11.8-2.6-2.7-5.1-2.8-7.5-.2zm6.4 1.3c.8 1 .7 1.4-.4 1.4-.8 0-1.2-.4-.9-.8.2-.4-.2-1-.8-1.2-.8-.4-.9-.6-.2-.6.6-.1 1.7.5 2.3 1.2zm-5.7 1.9c-.7.7-1.2.8-1.2.2 0-1.4 1.2-2.6 1.9-1.9.2.3-.1 1.1-.7 1.7zm1.5 3.5c-.4.3.1 1.5 1 2.6 1.7 1.9 1.7 2-.4.8-1.3-.6-2.3-1.5-2.3-2 0-.9 1.1-2.1 1.8-2.1.3 0 .2.3-.1.7zm6.3.7c0 1.1-1.9 1.5-2.5.6-.3-.5.1-1 .9-1 .9 0 1.6.2 1.6.4zM226.2 186.6c-.9.4-.3 2.2 2 6.5 1.8 3.2 3.5 5.9 3.8 5.9.4 0 1.6-.9 2.8-2 2.7-2.5 2.8-6.1.4-8.3-2-1.8-6.9-2.9-9-2.1zM254 199.1c-3 2.1-8.6 6.1-12.5 8.8-3.8 2.7-9.7 7-13 9.5-5.4 4.1-6.1 4.4-7.2 2.9-1.8-2.4-1.6-2.9 1.1-2.8 1.4 0 5.5-2.4 10.1-6 12.5-9.6 14.7-12 5.5-6.1-4.7 3-8.7 5.2-9 4.9-.3-.3.5-1.2 1.6-2 1.5-.9 2-2.1 1.7-3.4-.6-2-.6-2-2.7 0-1.1 1-8.3 5.8-15.9 10.5-7.5 4.7-14.3 9-15 9.5-.6.6-2.5 2.1-4 3.3l-2.8 2.3h2.6c1.4 0 2.4-.5 2.1-1-.2-.6 1.2-1.1 3.2-1.2 1.9-.1 3.8-.6 4.1-1.1 1.5-2.1 10-4.4 17.1-4.5 9.2-.2 15-2.9 22.4-10.2 2.8-2.8 6.4-5.7 7.9-6.5 4.7-2.4 11.8-11.1 9-11-.5.1-3.3 1.9-6.3 4.1z"/><path d="M248.9 198.1l-2.4 2 2.8-1.7c1.5-.9 2.7-1.8 2.7-2 0-.8-.8-.4-3.1 1.7zM90.8 213.1c1.7 1.9 3.2 4 3.2 4.7 0 1.4 1.6 1.6 2.4.3.3-.5-1.6-2.6-4.2-4.7l-4.7-3.8 3.3 3.5zM137 214.1c0 .5.5.7 1 .4.6-.3 1-.8 1-1.1 0-.2-.4-.4-1-.4-.5 0-1 .5-1 1.1zM114.4 217.5c-4.2 6.4 4.9 15.3 9.9 9.7 3.1-3.4 1.7-8.5-3-11-3.3-1.8-5.1-1.5-6.9 1.3zm6.9 9.2c-.7.2-1.9.2-2.5 0-.7-.3-.2-.5 1.2-.5s1.9.2 1.3.5zM133.5 221.1c-.4.6-.5 1.2-.2 1.5.2.3.7-.2 1-1.1.7-1.7.1-2-.8-.4zM177.5 261.5c-12.5 2.7-19.6 5-27.5 9-6.8 3.4-6.5 3.1-4.6 5 2.3 2.4 11.2 3.2 13.4 1.2.9-.8 2.9-1.9 4.5-2.2 1.5-.4 2.7-1.1 2.7-1.6s2-.9 4.4-.9c2.5 0 4.7-.4 5.1-.9.3-.5 3.1-1.7 6.3-2.6 7.9-2.3 11.5-4.3 10.8-6.1-.3-.8.1-1.4.9-1.4s1.5-.5 1.5-1c0-1.6-5.5-1.1-17.5 1.5zM0 272.5v7.5h12.3c8.2 0 12.7-.4 13.5-1.2.9-.9 1.2-.9 1.2 0 0 .7 1.4 1.2 3.2 1.2 2.9 0 3-.1 1.3-1.3-1-.8-1.5-1.9-1.1-2.5.5-.8-.1-1.2-1.6-1.3-4.8-.3-16.4-2.5-17.9-3.5-.6-.3-1.6 0-2.4.6-1.7 1.4-3.5.5-3.4-1.8 0-1.4.2-1.3 1 .3l.9 2-.3-2c-.2-1.5-.9-1.9-2.7-1.7-2 .2-2.2 0-1-.8 1.3-.9 1.3-1.1 0-2-2.7-1.8-3-1.1-3 6.5zm22.5 4.4c-.3.6-1.1.8-1.7.5-.6-.4-.5-.9.3-1.5 1.6-1 2.3-.4 1.4 1zM278.4 275.5c-.3.8-2.1 1.7-4 2.1-4.9.9-4.2 2.4 1.1 2.4 4.3 0 4.5-.1 4.5-3 0-3.2-.7-3.9-1.6-1.5z"/></svg>